@startuml
skinparam monochrome true
skinparam packageStyle rectangle
skinparam shadowing false

skinparam classAttributeIconSize 0

hide circle
hide methods

class Employee{
    name
    numberCitizen
    tin
    email
    phoneNumber
}

class Agent

class Advertisement {
    status
    idAdvertisement
    date
}

class AdvertisementSale {
    salePrice
}

class AdvertisementLease {
    durationOfContract
    rentalPrice

}

class AdvertisementType {
    designation


class PropertyType{
    designation
}

class Property{
    areaProperty
    distanceCityCenter
    conditionProperty
    photos
    propertyCode
}

class House {
    basement
    loft
    sunExposure
}

class Building{
    numberBedrooms
    numberBathrooms
    numberParking
    availableEquipment
}

class Location {
    street
    zipCode
    stateUS
    city
    district
}

class Commission

class CommissionType{
    designation
}
class CommissionPercent{
    percent
}
class CommissionFixValue{
    value
}


Agent "1" -- "*" Advertisement: publishes, validates and is in charge of >
Agent "1" -- "*" Commission: attributes >
Advertisement <|-- AdvertisementSale
Advertisement <|-- AdvertisementLease
Advertisement "*" -- "1" AdvertisementType: contains >
Advertisement "1" -- "1" Commission: contains >
Advertisement"1" -- "*"Offer: receives >
Building --|> Property
Commission <|-- CommissionFixValue
Commission <|-- CommissionPercent
Commission "*" -- "1" CommissionType: contains >
Employee <|-- Agent
Employee "1" -- "1" Location: owns >
Owner "1" -- "1" Location: owns >
Owner "1" - "*" Advertisement: asks to create >
Property "1" - "1" Advertisement: represents <
Property "1" -- "1" Location: owns >
PropertyType "1" -- "*" Property: contains <
House --|> Building

@enduml
