@startuml
skinparam monochrome true
skinparam packageStyle rectangle
skinparam shadowing false

skinparam classAttributeIconSize 0

hide circle
hide methods

class Employee {
    idEmployee
    name
    citizenID
    tin
    location
    email
    phoneNumber
}

class Client {
    idClient
    name
    phoneNumber
    citizenID
    tin
    email
    location
}

class Owner {
    idOwner
    email
    name
    citizenID
    tin
    location
    phoneNumber
}

class Agent {
    idCodAgent
    idCodStore
    commission
}

class Advertisement {
    idAdvertisement
    idCodAgent
    propertyCode
    price
    contractDuration
}

class Property {
    idOwner
    propertyType
    areaProperty
    distanceCityCenter
    location
    conditionProperty
    photos
    propertyCode
}

class House {
    numberBedrooms
    numberBathrooms
    numberParking
    availableEquipment
    basement
    loft
    sunExposure
}

class Apartment {
    numberBedrooms
    numberBathrooms
    numberParking
    availableEquipment
}

class Land {
    description
}

class Store {
    idCodStore
    nameStore
    location
    idStoreManager
    emailStore
    contactStore
    commission
}

class Location {
    address
    doorNumber
    floor
    side
    zipCode
    stateUS
    county
    city
}

class Request {
    idRequest
    idProperty
    idCodClient
    offer
}

class User {
    email
    password
}


Agent "1" -- "1" Request: verifies >
Agent "1" -- "*" Advertisement: publishes >
Apartment "1" -- "1" Property: is >
Client"1" -- "*" Request: make >
Request "1" -- "1" Advertisement: turns into >
Employee "1" -- "1" Location: has >
Employee "1" -- "1" Agent: is <
House "1" -- "1" Property: is >
Land "1" -- "1"  Property: is >
Property "1" -- "1" Location: has >
Property "1" - "1" Advertisement: is used in >
Property "1" - "1" Request: is used in >
Store"1" -- "1"Location: has >
Store "1" -- "*" Advertisement: contains >
Store "1" -- "*" Agent: works <
User "1" -- "1" Employee: is <
User "1" -- "1" Owner: is <
User "1" -- "1" Client: is <
Client "1" -- "1" Location: has >
Owner "1" -- "1..*" Property: owns >
Owner "1" -- "1" Location: has >
@enduml