@startuml
skinparam monochrome true
skinparam packageStyle rectangle
skinparam shadowing false

'left to right direction

skinparam classAttributeIconSize 0

hide circle
hide methods

class PropertyType{
    designation
}

class Property{
    propertyType
    areaProperty
    distanceCityCenter
    conditionProperty
    photos
    propertyCode
}

class UnregisteredUser

class Owner {
    email
    name
    numberCitizen
    tin
    phoneNumber
}


class House {
    basement
    loft
    sunExposure
}

class Building{
    numberBedrooms
    numberBathrooms
    numberParking
    availableEquipment
}

class Advertisement {
    status
    idAdvertisement
    date
}

class Location{
    street
    zipCode
    stateUS
    city
    district
}

class AdvertisementSale {
    salePrice
}

class AdvertisementLease {
    durationOfContract
    rentalPrice

}

class AdvertisementType {
    designation
}

class Commission{

}
class CommissionType{
    designation
}
class CommissionPercent{
    percent
}
class CommissionFixValue{
    value
}

class Employee{
    name
    numberCitizen
    tin
    email
    phoneNumber
}


UnregisteredUser "*" -- "*" Advertisement: searches >
Owner "1"--"1..*" Property: owns >
Property <|-- Building
Property "*" -- "1" PropertyType: contains >
Building <|-- House
Property "1" -- "1" Advertisement: represents <
Location "1" -- "1" Property: owns <
Location "1" -- "1" Owner: owns <
Owner "1" -- "*" Advertisement: asks to create >
Advertisement <|-- AdvertisementSale
Advertisement <|-- AdvertisementLease
Advertisement "*" -- "1" AdvertisementType: contains >
Commission <|-- CommissionFixValue
Commission <|-- CommissionPercent
Commission "*" -- "1" CommissionType: contains >
Advertisement "1" -- "1" Commission: contains >
Agent "1" -- "*" Commission: attributes >
Agent "1" -- "*" Advertisement: publishes, validates and is in charge of >
Employee <|-- Agent

@enduml